<svg xmlns="http://www.w3.org/2000/svg" viewBox="0 0 254.97 220.62"><defs><style>.cls-1,.cls-2,.cls-4,.cls-6{fill:#534741;}.cls-1,.cls-6{stroke:#fff;}.cls-1,.cls-2,.cls-3,.cls-5,.cls-6{stroke-miterlimit:10;}.cls-1,.cls-3{stroke-width:3px;}.cls-2,.cls-3,.cls-5{stroke:#534741;}.cls-3,.cls-5{fill:#fff;}.cls-5,.cls-6{stroke-width:4px;}</style></defs><g id="Layer_2" data-name="Layer 2"><g id="Layer_1-2" data-name="Layer 1"><path class="cls-1" d="M133.3,107.75C139.67,93.53,142,79,131.68,71.24c-.24-.19-.5-.33-.75-.5s-.45-.41-.69-.59c-10.27-7.76-23.63-1.6-35.57,8.41a31.49,31.49,0,0,0-7.92,9.58,14.42,14.42,0,0,0-2,5.85A18,18,0,0,0,90,110.48a32.29,32.29,0,0,0,13.36,10.2C114.12,127.11,126.69,122.52,133.3,107.75Z"/><ellipse class="cls-1" cx="114.2" cy="93.2" rx="28.15" ry="9.6" transform="translate(-29.01 128.13) rotate(-52.93)"/><path class="cls-2" d="M213.47,183.14c0-1.46-.81-2.65-1.8-2.65h-53.9c-1,0-1.8,1.19-1.8,2.65v15.79a3.67,3.67,0,0,0,.1.76,4.7,4.7,0,0,0-.1.83c0,6.41,12.87,11.6,28.75,11.6s28.75-5.19,28.75-11.6a5.87,5.87,0,0,0-.1-.83,3.67,3.67,0,0,0,.1-.76Z"/><ellipse class="cls-2" cx="184.36" cy="182.6" rx="28.39" ry="11.6"/><ellipse class="cls-3" cx="184.72" cy="182.12" rx="28.75" ry="12.14"/><ellipse class="cls-3" cx="184.72" cy="177.27" rx="23.72" ry="10.02"/><ellipse class="cls-3" cx="184.72" cy="173.47" rx="17.97" ry="6.22"/><path class="cls-3" d="M186.93,162.14l7.86,6.65a3.43,3.43,0,0,1-2.22,6.05H176.86a3.43,3.43,0,0,1-2.21-6.05l7.85-6.65A3.43,3.43,0,0,1,186.93,162.14Z"/><path class="cls-2" d="M242.47,158.14c0-1.46-.81-2.65-1.8-2.65h-53.9c-1,0-1.8,1.19-1.8,2.65v15.79a3.67,3.67,0,0,0,.1.76,4.7,4.7,0,0,0-.1.83c0,6.41,12.87,11.6,28.75,11.6s28.75-5.19,28.75-11.6a5.87,5.87,0,0,0-.1-.83,3.67,3.67,0,0,0,.1-.76Z"/><ellipse class="cls-2" cx="213.36" cy="157.6" rx="28.39" ry="11.6"/><ellipse class="cls-3" cx="213.72" cy="157.12" rx="28.75" ry="12.14"/><ellipse class="cls-3" cx="213.72" cy="152.27" rx="23.72" ry="10.02"/><ellipse class="cls-3" cx="213.72" cy="148.47" rx="17.97" ry="6.22"/><path class="cls-3" d="M215.93,137.14l7.86,6.65a3.43,3.43,0,0,1-2.22,6.05H205.86a3.43,3.43,0,0,1-2.21-6.05l7.85-6.65A3.43,3.43,0,0,1,215.93,137.14Z"/><path class="cls-2" d="M253.47,191.14c0-1.46-.81-2.65-1.8-2.65h-53.9c-1,0-1.8,1.19-1.8,2.65v15.79a3.67,3.67,0,0,0,.1.76,4.7,4.7,0,0,0-.1.83c0,6.41,12.87,11.6,28.75,11.6s28.75-5.19,28.75-11.6a5.87,5.87,0,0,0-.1-.83,3.67,3.67,0,0,0,.1-.76Z"/><ellipse class="cls-2" cx="224.36" cy="190.6" rx="28.39" ry="11.6"/><ellipse class="cls-3" cx="224.72" cy="190.12" rx="28.75" ry="12.14"/><ellipse class="cls-3" cx="224.72" cy="185.27" rx="23.72" ry="10.02"/><ellipse class="cls-3" cx="224.72" cy="181.47" rx="17.97" ry="6.22"/><path class="cls-3" d="M226.93,170.14l7.86,6.65a3.43,3.43,0,0,1-2.22,6.05H216.86a3.43,3.43,0,0,1-2.21-6.05l7.85-6.65A3.43,3.43,0,0,1,226.93,170.14Z"/><path class="cls-4" d="M54.72,95.62a20.2,20.2,0,0,0-3,.24C47.81,89.1,41.06,84.62,33.36,84.62c-12,0-21.79,11-21.79,24.5s9.75,24.5,21.79,24.5a20.2,20.2,0,0,0,3-.24c3.88,6.76,10.64,11.24,18.33,11.24,12,0,21.8-11,21.8-24.5S66.76,95.62,54.72,95.62Z"/><rect class="cls-4" x="141.49" y="15.25" width="53.53" height="15.28" rx="7.64" transform="translate(287.95 -97.56) rotate(127.07)"/><line class="cls-5" x1="151.5" y1="44.62" x2="131.4" y2="71.69"/><path class="cls-6" d="M99.88,209.62c54.05,0,97.87-44.32,97.87-99H2C2,165.3,45.82,209.62,99.88,209.62Z"/><rect class="cls-6" x="59.39" y="204.62" width="80.97" height="10"/><path class="cls-6" d="M143.25,110.62v28.5c0,4.67,3.4,8.5,7.56,8.5s7.57-3.83,7.57-8.5v-15c0-3.58,2.6-6.5,5.78-6.5s5.78,2.92,5.78,6.5v6c0,4.67,3.41,8.5,7.57,8.5s7.56-3.83,7.56-8.5v-19.5Z"/></g></g></svg>