<svg xmlns="http://www.w3.org/2000/svg" viewBox="0 0 194.57 166.59"><defs><style>.cls-1,.cls-3,.cls-5,.cls-6{fill:#fff;}.cls-1,.cls-4,.cls-5,.cls-6{stroke:#534741;}.cls-1,.cls-3,.cls-4,.cls-5,.cls-6{stroke-miterlimit:10;}.cls-1,.cls-3{stroke-width:4px;}.cls-2,.cls-4{fill:#534741;}.cls-3{stroke:#fff;}.cls-6{stroke-width:0.5px;}</style></defs><g id="Layer_2" data-name="Layer 2"><g id="Layer_1-2" data-name="Layer 1"><path class="cls-1" d="M125,160.51H69.59l.71-3.9a39.91,39.91,0,0,0,.53-10.18l-1.24-16.05H125l-1.33,18a29.25,29.25,0,0,0,.48,7.87Z"/><rect class="cls-1" x="2" y="2" width="190.57" height="138.45" rx="12.01"/><rect class="cls-2" x="10.55" y="9.31" width="173.46" height="123.83" rx="12.01"/><rect class="cls-3" x="30.3" y="38.36" width="34.2" height="23.62"/><rect class="cls-3" x="80.79" y="39.17" width="34.2" height="23.62"/><rect class="cls-3" x="130.47" y="38.36" width="34.2" height="23.62"/><rect class="cls-3" x="30.3" y="80.7" width="34.2" height="23.62"/><rect class="cls-3" x="80.38" y="80.7" width="34.2" height="23.62"/><rect class="cls-3" x="130.47" y="80.7" width="34.2" height="23.62"/><rect class="cls-1" x="60.43" y="156.44" width="74.11" height="8.14"/><path class="cls-4" d="M155.31,50.27a.51.51,0,0,0-.51-.51H139.53a.51.51,0,0,0-.51.51v3a.8.8,0,0,0,0,.15.76.76,0,0,0,0,.16c0,1.23,3.65,2.24,8.14,2.24s8.15-1,8.15-2.24a.76.76,0,0,0,0-.16.8.8,0,0,0,0-.15Z"/><ellipse class="cls-5" cx="147.06" cy="50.16" rx="8.04" ry="2.24"/><path class="cls-4" d="M105.63,94.43a.51.51,0,0,0-.51-.51H89.85a.51.51,0,0,0-.51.51v3a.8.8,0,0,0,0,.15.76.76,0,0,0,0,.16C89.34,99,93,100,97.49,100s8.14-1,8.14-2.24a.76.76,0,0,0,0-.16.4.4,0,0,0,0-.15Z"/><ellipse class="cls-5" cx="97.39" cy="94.33" rx="8.04" ry="2.24"/><path class="cls-4" d="M105.63,88.54a.51.51,0,0,0-.51-.51H89.85a.51.51,0,0,0-.51.51V91.6a.7.7,0,0,0,0,.14.9.9,0,0,0,0,.16c0,1.24,3.65,2.24,8.15,2.24s8.14-1,8.14-2.24a.9.9,0,0,0,0-.16.35.35,0,0,0,0-.14Z"/><ellipse class="cls-5" cx="97.39" cy="88.44" rx="8.04" ry="2.24"/><path class="cls-4" d="M150.42,88.54a.51.51,0,0,0-.51-.51H134.64a.51.51,0,0,0-.51.51V91.6a.7.7,0,0,0,0,.14.9.9,0,0,0,0,.16c0,1.24,3.65,2.24,8.15,2.24s8.14-1,8.14-2.24a.45.45,0,0,0,0-.16.35.35,0,0,0,0-.14Z"/><ellipse class="cls-5" cx="142.18" cy="88.44" rx="8.04" ry="2.24"/><path class="cls-4" d="M158.57,92.62a.51.51,0,0,0-.52-.51H142.79a.51.51,0,0,0-.51.51v3a.32.32,0,0,0,0,.14.5.5,0,0,0,0,.16c0,1.24,3.64,2.24,8.14,2.24s8.15-1,8.15-2.24a1.1,1.1,0,0,0,0-.16.58.58,0,0,0,0-.14Z"/><ellipse class="cls-5" cx="150.32" cy="92.51" rx="8.04" ry="2.24"/><path class="cls-4" d="M51.07,47.83a.51.51,0,0,0-.51-.52H35.29a.51.51,0,0,0-.51.52v3.05a.35.35,0,0,0,0,.14.5.5,0,0,0,0,.16c0,1.24,3.65,2.24,8.14,2.24s8.15-1,8.15-2.24A1.1,1.1,0,0,0,51,51a.7.7,0,0,0,0-.14Z"/><ellipse class="cls-5" cx="42.82" cy="47.72" rx="8.04" ry="2.24"/><path class="cls-4" d="M59.21,51.9a.51.51,0,0,0-.51-.51H43.43a.51.51,0,0,0-.51.51V55a.58.58,0,0,0,0,.14,1.1,1.1,0,0,0,0,.16c0,1.24,3.65,2.24,8.15,2.24s8.14-1,8.14-2.24a1.1,1.1,0,0,0,0-.16.32.32,0,0,0,0-.14Z"/><ellipse class="cls-5" cx="50.96" cy="51.79" rx="8.04" ry="2.24"/><path class="cls-6" d="M96.76,49.13H90.65c-.11,0-.2.18-.2.4l.93,4.71h4.89L97,49.53C97,49.31,96.87,49.13,96.76,49.13Z"/><ellipse class="cls-6" cx="93.86" cy="49.35" rx="4.07" ry="2.04"/><ellipse class="cls-6" cx="93.86" cy="48.54" rx="3.36" ry="1.68"/><ellipse class="cls-6" cx="93.86" cy="47.9" rx="2.54" ry="1.04"/><path class="cls-6" d="M94.38,46.21l.67.67a.73.73,0,0,1-.52,1.25H93.2a.73.73,0,0,1-.52-1.25l.66-.67A.73.73,0,0,1,94.38,46.21Z"/><path class="cls-6" d="M105.72,46.69H99.61c-.11,0-.2.18-.2.4l.93,4.7h4.88l.7-4.7C105.92,46.87,105.83,46.69,105.72,46.69Z"/><ellipse class="cls-6" cx="102.82" cy="46.91" rx="4.07" ry="2.04"/><ellipse class="cls-6" cx="102.82" cy="46.09" rx="3.36" ry="1.68"/><ellipse class="cls-6" cx="102.82" cy="45.46" rx="2.54" ry="1.04"/><path class="cls-6" d="M103.34,43.76l.67.67a.74.74,0,0,1-.52,1.26h-1.33a.74.74,0,0,1-.52-1.26l.66-.67A.75.75,0,0,1,103.34,43.76Z"/><path class="cls-6" d="M102.46,53.2H96.35c-.11,0-.2.18-.2.41l.93,4.7H102l.69-4.7C102.66,53.38,102.57,53.2,102.46,53.2Z"/><ellipse class="cls-6" cx="99.57" cy="53.42" rx="4.07" ry="2.04"/><ellipse class="cls-6" cx="99.57" cy="52.61" rx="3.36" ry="1.68"/><ellipse class="cls-6" cx="99.57" cy="51.97" rx="2.54" ry="1.04"/><path class="cls-6" d="M100.09,50.28l.66.67a.73.73,0,0,1-.52,1.25H98.9A.73.73,0,0,1,98.38,51l.67-.67A.73.73,0,0,1,100.09,50.28Z"/><path class="cls-4" d="M57.58,97.44c0-.18-.11-.33-.25-.33H49.69c-.14,0-.25.15-.25.33v2s0,.06,0,.09,0,.07,0,.1c0,.8,1.82,1.45,4.07,1.45s4.07-.65,4.07-1.45c0,0,0-.07,0-.1s0-.06,0-.09Z"/><ellipse class="cls-4" cx="53.46" cy="97.37" rx="4.02" ry="1.45"/><ellipse class="cls-6" cx="53.51" cy="97.5" rx="4.07" ry="1.72"/><ellipse class="cls-6" cx="53.51" cy="96.81" rx="3.36" ry="1.42"/><ellipse class="cls-6" cx="53.51" cy="96.27" rx="2.54" ry="0.88"/><path class="cls-6" d="M54,94.8l.44.37a.74.74,0,0,1-.48,1.3h-.86a.74.74,0,0,1-.48-1.3L53,94.8A.73.73,0,0,1,54,94.8Z"/><path class="cls-4" d="M44.55,97.44c0-.18-.11-.33-.25-.33H36.66c-.14,0-.25.15-.25.33v2s0,.06,0,.09,0,.07,0,.1c0,.8,1.82,1.45,4.07,1.45s4.07-.65,4.07-1.45c0,0,0-.07,0-.1s0-.06,0-.09Z"/><ellipse class="cls-4" cx="40.43" cy="97.37" rx="4.02" ry="1.45"/><ellipse class="cls-6" cx="40.48" cy="97.5" rx="4.07" ry="1.72"/><ellipse class="cls-6" cx="40.48" cy="96.81" rx="3.36" ry="1.42"/><ellipse class="cls-6" cx="40.48" cy="96.27" rx="2.54" ry="0.88"/><path class="cls-6" d="M41,94.8l.44.37a.74.74,0,0,1-.48,1.3h-.86a.74.74,0,0,1-.48-1.3L40,94.8A.73.73,0,0,1,41,94.8Z"/><path class="cls-4" d="M44.55,88.07c0-.18-.11-.33-.25-.33H36.66c-.14,0-.25.15-.25.33v2s0,.06,0,.09,0,.07,0,.11c0,.8,1.82,1.45,4.07,1.45s4.07-.65,4.07-1.45c0,0,0-.07,0-.11s0-.06,0-.09Z"/><ellipse class="cls-4" cx="40.43" cy="88.01" rx="4.02" ry="1.45"/><ellipse class="cls-6" cx="40.48" cy="88.13" rx="4.07" ry="1.72"/><ellipse class="cls-6" cx="40.48" cy="87.44" rx="3.36" ry="1.42"/><ellipse class="cls-6" cx="40.48" cy="86.91" rx="2.54" ry="0.88"/><path class="cls-6" d="M41,85.44l.44.36a.74.74,0,0,1-.48,1.3h-.86a.74.74,0,0,1-.48-1.3l.44-.36A.73.73,0,0,1,41,85.44Z"/><path class="cls-4" d="M57.58,88.07c0-.18-.11-.33-.25-.33H49.69c-.14,0-.25.15-.25.33v2s0,.06,0,.09,0,.07,0,.11c0,.8,1.82,1.45,4.07,1.45s4.07-.65,4.07-1.45c0,0,0-.07,0-.11s0-.06,0-.09Z"/><ellipse class="cls-4" cx="53.46" cy="88.01" rx="4.02" ry="1.45"/><ellipse class="cls-6" cx="53.51" cy="88.13" rx="4.07" ry="1.72"/><ellipse class="cls-6" cx="53.51" cy="87.44" rx="3.36" ry="1.42"/><ellipse class="cls-6" cx="53.51" cy="86.91" rx="2.54" ry="0.88"/><path class="cls-6" d="M54,85.44l.44.36a.74.74,0,0,1-.48,1.3h-.86a.74.74,0,0,1-.48-1.3l.44-.36A.73.73,0,0,1,54,85.44Z"/></g></g></svg>