<svg xmlns="http://www.w3.org/2000/svg" viewBox="0 0 133.06 141.95"><defs><style>.cls-1,.cls-3,.cls-5{fill:#534741;}.cls-1,.cls-2{stroke:#534741;stroke-width:4px;}.cls-1,.cls-2,.cls-5,.cls-6,.cls-7{stroke-miterlimit:10;}.cls-2,.cls-4,.cls-6{fill:#fff;}.cls-5,.cls-6,.cls-7{stroke:#fff;stroke-width:3px;}.cls-7{fill:none;}</style></defs><g id="Layer_2" data-name="Layer 2"><g id="Layer_1-2" data-name="Layer 1"><rect class="cls-1" x="3.76" y="2" width="127.3" height="137.95" rx="26"/><rect class="cls-2" x="2" y="2" width="23.7" height="137.95"/><path class="cls-3" d="M54.05,106l.75-20.51-.91-8-1-.25a15.75,15.75,0,0,1,3.22-31l.93,0,.39-.85a19.24,19.24,0,0,1,34.64-1.09l.38.72.81.07a15.78,15.78,0,0,1,4,30.4l-.83.31-1.16,8.43L96.35,106Z"/><path class="cls-4" d="M75,35.54a17.88,17.88,0,0,1,15.73,9.55l.76,1.43,1.62.15a14.28,14.28,0,0,1,3.56,27.49L95,74.79l-.24,1.78-1,7.4,0,.28v.28l1,20H55.6l.69-18.85v-.22l0-.23-.77-6.8-.23-2.07-2-.5a14.25,14.25,0,0,1,2.9-28L58,47.8l.78-1.7A18,18,0,0,1,75,35.54m0-3a20.88,20.88,0,0,0-19,12.31,17.25,17.25,0,0,0-3.54,33.92l.77,6.8-.8,22H97.93L96.72,84.38l1-7.41a17.28,17.28,0,0,0-4.35-33.29A20.83,20.83,0,0,0,75,32.54Z"/><polyline class="cls-5" points="57.48 109.17 49.67 109.17 49.67 103.03 74.81 102.21 99.94 103.03 99.94 109.17 60.94 109.17"/><path class="cls-6" d="M53.62,46.32A15.71,15.71,0,0,1,64.85,51.4"/><path class="cls-6" d="M57,77.61a15.64,15.64,0,0,1-11.59-4.13"/><path class="cls-7" d="M104.5,70.67a15.74,15.74,0,0,1-11,5.65"/><path class="cls-6" d="M60.93,76.39C69,73.93,79.7,73.5,91,75.7"/><path class="cls-7" d="M88.86,39.54a16.26,16.26,0,0,1,5.26,11.31"/><circle class="cls-3" cx="14.11" cy="33.6" r="5.03"/><circle class="cls-3" cx="14.11" cy="71.14" r="5.03"/><circle class="cls-3" cx="14.11" cy="108.67" r="5.03"/></g></g></svg>